# xmcd
#
# Track frame offsets: 
#        150
#        23666
#        38563
#        55234
#        74142
#        93640
#        107206
#        122697
#        143982
#        168640
#        193613
#
# Disc length: 2873 seconds
#
# Revision: 0
# Processed by: cddbd v1.5.2PL0 Copyright (c) Steve Scherf et al.
# Submitted via: ExactAudioCopy v0.99pb4
#
DISCID=a00b370b
DTITLE=Slim Fatz - Everybody Loves Slim
DYEAR=2010
DGENRE=Acoustic
TTITLE0=Everybody Loves Slim
TTITLE1=Giddy-up A Go-Go
TTITLE2=A Man With So Much
TTITLE3=New Orleans In The Rain
TTITLE4=Evil
TTITLE5=Love In Dm
TTITLE6=Hoots
TTITLE7=She's Not Mine
TTITLE8=Crawl
TTITLE9=Never Again No Mo'
TTITLE10=Angel On A Cloud
EXTD=
EXTT0=
EXTT1=
EXTT2=
EXTT3=
EXTT4=
EXTT5=
EXTT6=
EXTT7=
EXTT8=
EXTT9=
EXTT10=
PLAYORDER=
